<?xml version="1.0" encoding="UTF-8"?>
<svg width="108px" height="94px" viewBox="0 0 108 94" version="1.1" xmlns="http://www.w3.org/2000/svg" xmlns:xlink="http://www.w3.org/1999/xlink">
    <!-- Generator: Sketch 63.1 (92452) - https://sketch.com -->
    <title>Original</title>
    <desc>Created with Sketch.</desc>
    <g id="Page-1" stroke="none" stroke-width="1" fill="none" fill-rule="evenodd">
        <g id="Original" fill="#007AFF" fill-rule="nonzero">
            <g id="SvgjsG1009">
                <g id="Group">
                    <path d="M105.507,60.817 C102.568,57.878 97.785,57.878 94.846,60.817 C94.1697821,61.4950214 93.6294168,62.2960654 93.254,63.177 L73.15,63.177 L89.774,46.553 C91.151,45.176 91.56,43.123 90.815,41.324 C90.07,39.525 88.33,38.361 86.381,38.361 L56.213,38.361 C56.0841773,37.4047387 55.7706967,36.4826371 55.29,35.646 L75.953,14.983 C77.0919753,15.6364912 78.3818693,15.9811984 79.695,15.983 C81.625,15.983 83.555,15.249 85.025,13.779 C87.964,10.84 87.964,6.057 85.025,3.118 C82.085,0.178 77.301,0.18 74.365,3.118 C71.922,5.561 71.517,9.273 73.134,12.146 L52.451,32.829 C49.578,31.211 45.866,31.617 43.423,34.06 C41.999,35.484 41.215,37.376 41.215,39.39 C41.215,41.404 41.999,43.297 43.423,44.72 C44.8352977,46.1351026 46.7537299,46.9283906 48.753,46.924 C51.767428,46.9266078 54.4930015,45.1314588 55.681,42.361 L86.381,42.361 C86.845,42.361 87.042,42.67 87.119,42.854 C87.2532167,43.1513472 87.1832567,43.5011474 86.945,43.724 L67.492,63.177 L5.087,63.177 C4.76099199,63.187853 4.46441461,62.9894641 4.35,62.684 C4.21473299,62.3866299 4.28435547,62.0361029 4.523,61.813 L21.069,45.267 C22.3401141,46.1684264 23.8596997,46.6530585 25.418,46.654 C27.349,46.654 29.278,45.92 30.748,44.45 C33.687,41.511 33.687,36.728 30.748,33.789 C27.81,30.851 23.028,30.851 20.088,33.789 C17.829,36.048 17.313,39.392 18.526,42.155 L1.695,58.986 C0.318709447,60.3564889 -0.0926093095,62.4229607 0.654,64.216 C1.39414309,66.0115048 3.14593012,67.1817333 5.088,67.178 L63.495,67.178 L51.694,78.979 C48.824,77.376 45.124,77.786 42.688,80.223 C39.75,83.162 39.75,87.945 42.688,90.883 C44.1008798,92.2979646 46.0194146,93.091506 48.019,93.0880116 C49.949,93.0880116 51.879,92.353 53.349,90.883 C54.7676434,89.4727493 55.5627797,87.5533307 55.557,85.553 C55.5578793,84.2300984 55.2079919,82.930615 54.543,81.787 L69.152,67.178 L92.722,67.178 C92.9394809,68.8056246 93.6861674,70.3165666 94.847,71.478 C96.2598798,72.8929646 98.1784146,73.686506 100.178,73.683 C102.108,73.683 104.038,72.948 105.508,71.478 C106.932,70.055 107.716,68.162 107.716,66.148 C107.716,64.134 106.93,62.24 105.507,60.817 Z M46.252,41.892 C45.5864643,41.2297717 45.2134292,40.3288703 45.2159868,39.39 C45.2138746,38.4512177 45.5868415,37.5504809 46.252,36.888 C46.9153748,36.2244203 47.8157029,35.8523423 48.754,35.8539909 C49.6926402,35.8518714 50.5934781,36.2236655 51.2573862,36.8871984 C51.9212944,37.5507312 52.2935978,38.4513588 52.2920051,39.39 C52.2920051,40.335 51.924,41.224 51.256,41.892 C49.873126,43.2712608 47.634874,43.2712608 46.252,41.892 L46.252,41.892 Z M77.194,5.946 C77.883,5.257 78.79,4.912 79.696,4.912 C80.602,4.912 81.508,5.257 82.198,5.946 C83.5779259,7.32898935 83.5779259,9.56801065 82.198,10.951 C80.815126,12.3302608 78.576874,12.3302608 77.194,10.951 C75.8140741,9.56801065 75.8140741,7.32898935 77.194,5.946 L77.194,5.946 Z M22.915,36.616 C23.604,35.927 24.511,35.582 25.417,35.582 C26.323,35.582 27.229,35.927 27.919,36.616 C29.2989259,37.9989894 29.2989259,40.2380106 27.919,41.621 C26.536126,43.0002608 24.297874,43.0002608 22.915,41.621 C21.5350741,40.2380106 21.5350741,37.9989894 22.915,36.616 L22.915,36.616 Z M50.519,88.054 C49.1355562,89.4328266 46.8974438,89.4328266 45.514,88.054 C44.1347392,86.671126 44.1347392,84.432874 45.514,83.05 C46.1774607,82.3864277 47.0776465,82.0140487 48.016,82.0149982 C48.9544985,82.0142037 49.8548165,82.3865313 50.5186229,83.0499625 C51.1824293,83.7133938 51.5552658,84.6135012 51.5550001,85.552 C51.5550001,86.497 51.187,87.386 50.519,88.054 L50.519,88.054 Z M102.678,68.649 C101.294556,70.0278266 99.0564438,70.0278266 97.673,68.649 C96.2937392,67.266126 96.2937392,65.027874 97.673,63.645 C98.3364607,62.9814277 99.2366465,62.6090487 100.175,62.6099982 C101.113498,62.6092037 102.013816,62.9815313 102.677623,63.6449625 C103.341429,64.3083938 103.714266,65.2085012 103.714018,66.147 C103.717017,67.0859584 103.343914,67.9870251 102.678,68.649 L102.678,68.649 Z" id="Shape"></path>
                </g>
            </g>
        </g>
    </g>
</svg>